<svg width="12" height="89" viewBox="0 0 12 89" fill="none" xmlns="http://www.w3.org/2000/svg">
<path d="M1.90533 88.0102C1.99673 86.585 2.09026 85.2469 2.16572 83.9078C2.83103 72.0789 3.54204 60.2511 3.61218 48.3977C3.61856 47.2754 3.60793 46.1531 3.59518 45.0297C3.58136 43.7129 3.97353 43.3558 5.32859 43.4972C5.68144 58.2955 6.03322 73.0971 6.38713 87.9507H7.82616C7.4765 73.1353 7.12683 58.337 6.77824 43.5546C7.8963 43.3973 8.35968 43.7841 8.34799 44.7513C8.22364 55.3845 8.79861 65.9955 9.37783 76.6054C9.57126 80.1413 9.79232 83.6761 10.0028 87.212C10.0176 87.4554 10.0453 87.6967 10.0718 87.9953L7.82616 87.9507H6.38713L1.90533 88.0102Z" fill="#E5E7E6"/>
<path d="M5.13031 19.9697C5.74461 19.9697 6.31214 19.9697 6.94769 19.9697C6.94769 24.4515 6.94769 28.9153 6.94769 33.3865C6.33977 33.3865 5.75417 33.3865 5.13031 33.3865C5.13031 28.8855 5.13031 24.4367 5.13031 19.9697Z" fill="#E5E7E6"/>
<path d="M5.2672 7.87224C5.80072 7.87224 6.21521 7.87224 6.72003 7.87224C6.73385 8.1762 6.75829 8.46209 6.75829 8.74904C6.76042 12.7898 6.77105 12.3402 6.74873 16.381C6.74448 17.059 6.72854 17.668 7.51394 17.9263C7.62979 17.9645 7.73075 18.0506 7.83278 18.1102C6.81463 19.2388 5.31077 19.2388 4.30005 18.1261C5.56796 17.7392 5.26401 16.7104 5.26507 15.8039C5.26932 11.9629 5.2672 12.6123 5.2672 8.77136C5.2672 8.50035 5.2672 8.22934 5.2672 7.87224Z" fill="#E5E7E6"/>
<path d="M0.640837 40.2193C0.60364 40.1481 0.582384 40.1268 0.581321 40.1045C0.53137 38.2935 0.344322 38.6931 1.89388 38.3201C4.57211 37.6739 7.26736 37.71 9.95516 38.3158C11.4123 38.6442 11.4293 38.6644 11.1784 40.2299C7.67972 39.199 4.17569 39.2032 0.640837 40.2193Z" fill="#E5E7E6"/>
<path d="M12 42.4925C11.1561 42.8443 10.494 43.1387 9.81278 43.38C9.72031 43.4129 9.5035 43.195 9.38978 43.0558C8.04747 41.4148 3.88451 41.4425 2.51563 43.0834C2.37428 43.2535 1.99911 43.3874 1.80249 43.3226C1.18395 43.1206 0.598354 42.8156 0.00106383 42.551C0.00106383 42.4606 0 42.3703 0 42.2789C0.371978 42.0653 0.720572 41.7794 1.12018 41.6497C4.30006 40.6188 7.49163 40.6348 10.6779 41.6348C10.9128 41.7082 11.136 41.8315 11.3506 41.9569C11.4973 42.044 11.6185 42.1737 12 42.4925Z" fill="#E5E7E6"/>
<path d="M2.21057 36.5752C2.03839 35.6006 2.05327 35.5729 3.06505 35.2764C4.97914 34.7174 6.89323 34.7216 8.80414 35.2934C9.7649 35.5814 9.78616 35.6229 9.5821 36.5752C7.11855 36.5752 4.67412 36.5752 2.21057 36.5752Z" fill="#E5E7E6"/>
<path d="M6.20283 0H5.90312L5.75433 7.18449H6.35268L6.20283 0Z" fill="#E5E7E6"/>
</svg>
