<svg width="63" height="32" viewBox="0 0 63 32" fill="none" xmlns="http://www.w3.org/2000/svg">
<path d="M7.77536 2.9192L7.77681 2.91849C8.9161 2.35816 11.0272 1.91757 12.9173 1.61677C13.8493 1.46843 14.7068 1.35706 15.3314 1.28278C15.6435 1.24566 15.8971 1.21784 16.0724 1.19934C16.16 1.19009 16.228 1.18317 16.2739 1.17858L16.3241 1.17362L16.3306 1.17351L16.4072 1.17219L16.6985 1.16734C16.9497 1.16324 17.3088 1.15755 17.7404 1.15124C18.6038 1.13861 19.7571 1.12346 20.9174 1.11336C22.0784 1.10325 23.2438 1.09823 24.1325 1.10577C24.5775 1.10955 24.9487 1.11645 25.2137 1.12718C25.2526 1.12876 25.2885 1.13039 25.3216 1.13207C25.3274 1.17362 25.3333 1.22063 25.3391 1.27332C25.3716 1.56739 25.3969 1.98316 25.415 2.48725C25.4512 3.4923 25.4579 4.81061 25.4446 6.12478C25.4313 7.43823 25.3981 8.74078 25.3552 9.7128C25.3347 10.1768 25.3122 10.5603 25.289 10.8322C25.1791 10.8232 25.0527 10.8127 24.9136 10.801C24.4584 10.7625 23.8707 10.7112 23.2892 10.6598C22.7078 10.6084 22.1329 10.5571 21.7034 10.5185L21.4449 10.4953V4.61598V4.11598H20.9449H16.6167C14.0393 4.11598 11.8447 4.5479 10.055 5.43851C8.26241 6.33051 6.90503 7.64514 5.99817 9.37592C5.08366 11.0998 4.63884 13.1749 4.63884 15.5804C4.63884 18.0053 5.08363 20.0951 5.99822 21.8288L5.9988 21.8299C6.91828 23.5625 8.30491 24.8855 10.14 25.7956L10.142 25.7966C11.9772 26.6965 14.2503 27.1324 16.9379 27.1324H20.9449H21.4449V26.6324V20.4456C21.5218 20.4373 21.6069 20.4281 21.6989 20.4183C22.1205 20.3734 22.6855 20.3143 23.2597 20.2579C23.8345 20.2014 24.4155 20.1478 24.8703 20.1136C25.0561 20.0996 25.2178 20.0891 25.3479 20.0829C25.3513 20.1062 25.3548 20.1311 25.3583 20.1578C25.3957 20.4441 25.426 20.8599 25.4487 21.3714C25.4939 22.3905 25.5073 23.7444 25.4964 25.1017C25.4855 26.4584 25.4504 27.8105 25.3996 28.8245C25.3741 29.3328 25.345 29.7488 25.3139 30.0358C25.3118 30.055 25.3097 30.0733 25.3077 30.0909C25.2804 30.0914 25.2518 30.0919 25.2217 30.0924C24.9567 30.0966 24.5925 30.0993 24.1617 30.1007C23.3005 30.1037 22.1795 30.1017 21.0668 30.0978C19.9543 30.0939 18.8511 30.0881 18.026 30.0832C17.6135 30.0808 17.2705 30.0786 17.0306 30.077L16.7524 30.0751L16.6792 30.0746L16.6757 30.0746L16.625 30.0697C16.5775 30.0651 16.5072 30.0582 16.4167 30.0489C16.2356 30.0304 15.9736 30.0026 15.6513 29.9655C15.0063 29.8911 14.1213 29.7797 13.1601 29.6313C11.2121 29.3305 9.03808 28.8897 7.87587 28.3288C5.47985 27.1623 3.66359 25.5056 2.40955 23.3581L2.4086 23.3565C1.14363 21.2088 0.5 18.6235 0.5 15.5804C0.5 12.5464 1.13823 9.97598 2.39169 7.84811L2.3917 7.84811L2.39313 7.84566C3.6367 5.70688 5.42549 4.06551 7.77536 2.9192Z" fill="#B7B5B3" stroke="#B7B5B3"/>
<path d="M36.4378 5.47482L36.7793 5.10966L36.7593 5.09094L36.7373 5.07453L36.4378 5.47482ZM36.4378 5.47482C36.7373 5.07453 36.7372 5.07443 36.7371 5.07433L36.7368 5.07413L36.7362 5.07371L36.735 5.07281L36.7323 5.07078L36.7254 5.0658C36.7202 5.06211 36.7138 5.05762 36.7063 5.05255C36.6915 5.04256 36.6713 5.02955 36.647 5.01557C36.6051 4.99141 36.5235 4.94808 36.4216 4.92439C36.3302 4.90311 36.1084 4.87285 35.9074 5.03341C35.7073 5.19328 35.6791 5.42174 35.6791 5.54797C35.6791 5.56499 35.679 5.63186 35.6787 5.74205C35.6767 6.474 35.6697 9.1175 35.6759 11.7598C35.6795 13.2803 35.6875 14.8032 35.7033 15.9647C35.7112 16.545 35.7211 17.0381 35.7336 17.3964C35.7398 17.5749 35.7468 17.7247 35.7548 17.8368C35.7588 17.8922 35.7635 17.9447 35.7693 17.9895C35.7722 18.0116 35.7762 18.0382 35.7818 18.0654L35.782 18.066C35.7856 18.0834 35.7977 18.1413 35.8281 18.2039C35.9052 18.3624 36.0357 18.4314 36.099 18.4578C36.1668 18.4861 36.2278 18.4955 36.2628 18.4994C36.3347 18.5076 36.4051 18.5038 36.4563 18.4994C36.5654 18.4902 36.7014 18.4672 36.8488 18.4377C37.1487 18.3777 37.56 18.2775 38.0388 18.1522C38.9993 17.9009 40.2656 17.5398 41.53 17.1715C42.3641 16.9286 43.2008 16.6815 43.9507 16.4601C44.3376 16.3459 44.7015 16.2385 45.0298 16.142C45.5134 15.9999 45.9194 15.8817 46.2118 15.7994C46.3584 15.7581 46.4732 15.7269 46.5537 15.7063C46.5944 15.6959 46.6219 15.6894 46.6385 15.6859C46.6394 15.6857 46.6402 15.6855 46.641 15.6854C46.7471 15.6732 46.91 15.6229 47.0169 15.4468C47.1278 15.2641 47.0819 15.0886 47.0728 15.0542C47.0486 14.9631 47.0023 14.8959 46.9929 14.8823C46.9925 14.8817 46.9921 14.8812 46.9919 14.8808C46.9605 14.8346 46.9202 14.7874 46.8877 14.7506C46.8159 14.6693 46.7092 14.5574 46.5781 14.4239C46.3132 14.1543 45.9239 13.7717 45.4536 13.3161C44.5118 12.4037 43.2337 11.1874 41.9493 9.9723C40.6645 8.75683 39.372 7.54119 38.4008 6.62949C37.9152 6.17363 37.5099 5.7937 37.2259 5.52773L36.8961 5.21899L36.8092 5.13761L36.7868 5.11673L36.7812 5.11144L36.7798 5.11011L36.7794 5.10977C36.7793 5.10969 36.7793 5.10966 36.4378 5.47482ZM46.5664 15.6885C46.5821 15.6891 46.6031 15.689 46.6278 15.6867C46.6271 15.6868 46.6264 15.6869 46.6257 15.6869C46.6183 15.6876 46.5961 15.6897 46.5664 15.6885ZM31.6735 30.2914C31.6714 30.2739 31.6692 30.2551 31.667 30.2349C31.6446 30.0275 31.6245 29.7225 31.607 29.327C31.5723 28.5387 31.5496 27.425 31.5365 26.0889C31.5103 23.4186 31.5223 19.88 31.5501 16.325C31.5912 11.054 31.6671 5.73723 31.7035 3.19013C31.7126 2.55221 31.7192 2.08802 31.7222 1.84179C31.8416 1.79293 32.0322 1.74051 32.2949 1.69288C32.8528 1.59174 33.6264 1.53112 34.445 1.52227C35.2619 1.51343 36.1014 1.55638 36.7889 1.65455C37.1332 1.7037 37.4282 1.76515 37.6583 1.83636C37.9017 1.91164 38.0206 1.98239 38.0616 2.01992C38.2654 2.20667 38.9807 2.87188 39.9913 3.8118C41.436 5.1554 43.4842 7.06036 45.5051 8.93149C47.2206 10.5199 48.9152 12.0829 50.1994 13.2529C50.8412 13.8376 51.3822 14.3258 51.7726 14.6704C51.9673 14.8422 52.1275 14.981 52.2452 15.0789C52.3033 15.1273 52.3558 15.1696 52.399 15.2021C52.42 15.2178 52.4451 15.236 52.471 15.2526C52.4838 15.2607 52.5027 15.2723 52.5253 15.2839C52.5407 15.2918 52.5904 15.3173 52.6579 15.3318C52.933 15.391 53.1115 15.2192 53.1699 15.1444C53.2272 15.0712 53.2528 14.998 53.2624 14.9689C53.2853 14.9 53.2969 14.8272 53.304 14.7745C53.3194 14.659 53.3297 14.5037 53.337 14.3258C53.3519 13.9646 53.3569 13.4524 53.3554 12.8446C53.3523 11.6267 53.3231 9.99649 53.2911 8.36049C53.2854 8.07084 53.2796 7.78101 53.2739 7.49318C53.2473 6.15291 53.2216 4.85619 53.2095 3.82455C53.2022 3.1975 53.2001 2.67303 53.2057 2.29824C53.2073 2.19407 53.2094 2.1035 53.2121 2.02679C53.3269 2.01194 53.4724 1.99841 53.6448 1.98685C54.1062 1.95594 54.7132 1.94213 55.3251 1.94438C55.9366 1.94663 56.5424 1.96487 57.0007 1.99652C57.1638 2.00778 57.303 2.02039 57.4145 2.03379C57.4197 2.15464 57.4239 2.30726 57.4271 2.48997C57.4358 2.98568 57.4371 3.68053 57.4333 4.51139C57.4262 6.05094 57.402 8.04477 57.3773 10.0766C57.3754 10.2366 57.3734 10.3968 57.3715 10.5571C57.3449 12.751 57.3194 14.9508 57.3159 16.6276C57.3142 17.4655 57.318 18.1768 57.3301 18.6929C57.3361 18.9501 57.3444 19.1648 57.3556 19.3247C57.3611 19.4038 57.3679 19.4775 57.3769 19.5396C57.3813 19.5703 57.3874 19.6061 57.3962 19.6422C57.4021 19.6661 57.4202 19.7394 57.4662 19.8148C57.5151 19.8948 57.5796 19.9621 57.6251 20.0068C57.6772 20.0579 57.7382 20.1117 57.8028 20.166C57.9323 20.2746 58.098 20.4027 58.2821 20.5416C58.4461 20.6654 58.6201 20.7942 58.8029 20.9296C59.049 21.1119 59.3112 21.3062 59.5874 21.5162C60.0572 21.8734 60.5197 22.241 60.886 22.5776C61.0691 22.7458 61.2209 22.8998 61.3352 23.0354C61.4033 23.1163 61.4508 23.1821 61.4827 23.2333C61.4483 23.2558 61.4026 23.2811 61.3439 23.3084C61.0577 23.4413 60.6086 23.5543 60.0903 23.65C59.6601 23.7294 59.2168 23.7911 58.8287 23.8451C58.7574 23.855 58.688 23.8647 58.6209 23.8742C58.4091 23.904 58.2139 23.9328 58.0625 23.9616C57.9875 23.9759 57.9118 23.9924 57.845 24.012C57.8117 24.0218 57.7718 24.0349 57.7311 24.0527C57.6973 24.0674 57.6284 24.0998 57.5619 24.1601C57.4557 24.2564 57.4163 24.3717 57.4042 24.4081C57.3865 24.4614 57.3763 24.5132 57.3699 24.5538C57.3567 24.6364 57.3499 24.7321 57.346 24.8286C57.338 25.0249 57.3403 25.2828 57.3481 25.5727C57.3612 26.0595 57.3908 26.6682 57.4209 27.2878C57.4268 27.4086 57.4327 27.5298 57.4385 27.6506C57.4743 28.3969 57.5063 29.1276 57.5094 29.6766C57.5106 29.8884 57.5073 30.0638 57.4995 30.1982C57.3529 30.2151 57.1638 30.2339 56.9449 30.2527C56.4691 30.2937 55.8623 30.3343 55.2613 30.3573C54.6571 30.3805 54.0724 30.3854 53.6352 30.3576C53.4732 30.3473 53.343 30.3332 53.2451 30.3168C53.2422 30.2573 53.2398 30.1876 53.2377 30.1077C53.2308 29.8342 53.2294 29.4634 53.232 29.0242C53.2369 28.1693 53.2564 27.0726 53.2761 25.966L53.2777 25.8777C53.2979 24.7435 53.3179 23.6052 53.3217 22.7227C53.3237 22.282 53.3216 21.9001 53.3133 21.6123C53.3091 21.469 53.3033 21.3431 53.2949 21.2424C53.2907 21.1922 53.2855 21.1426 53.2785 21.0972C53.2729 21.0611 53.2613 20.9928 53.234 20.9241C53.1753 20.7762 53.0547 20.6326 52.9673 20.5341C52.8627 20.4162 52.7301 20.282 52.5834 20.1413C52.289 19.8589 51.9158 19.529 51.5456 19.2149C51.1748 18.9002 50.8016 18.5965 50.5052 18.366C50.3574 18.251 50.2254 18.1516 50.1206 18.0773C50.0687 18.0404 50.0189 18.0065 49.9749 17.979L49.9728 17.9777C49.9448 17.9602 49.8698 17.9132 49.7856 17.8876C49.719 17.8673 49.663 17.8656 49.6444 17.8652C49.6183 17.8645 49.5961 17.8659 49.5816 17.867C49.5522 17.8693 49.5244 17.8733 49.503 17.8768C49.4587 17.8841 49.4062 17.8948 49.3506 17.9072C49.2374 17.9323 49.0836 17.9701 48.8981 18.0178C48.5257 18.1136 48.0086 18.254 47.3965 18.4246C46.1715 18.766 44.5569 19.2311 42.9386 19.7101C41.3207 20.189 39.6961 20.6826 38.452 21.0809C37.8306 21.2798 37.2999 21.4562 36.9111 21.5959C36.7175 21.6655 36.5528 21.7281 36.4274 21.7814C36.3653 21.8078 36.3057 21.8349 36.2541 21.862L36.253 21.8626C36.2194 21.8802 36.1283 21.9281 36.0545 22.0061C35.9742 22.0909 35.9354 22.1842 35.9168 22.236C35.8954 22.2955 35.8815 22.3554 35.8717 22.4081C35.8521 22.5136 35.8408 22.6366 35.8339 22.7645C35.82 23.0228 35.8211 23.3585 35.8303 23.7365C35.8446 24.3196 35.8792 25.035 35.9151 25.7764C35.9258 25.9979 35.9366 26.2217 35.9471 26.445C35.9928 27.4233 36.031 28.3939 36.0228 29.155C36.0187 29.5369 36.003 29.8514 35.9737 30.0816C35.9597 30.1921 35.944 30.2708 35.9294 30.3223C35.9061 30.3333 35.8676 30.3491 35.8084 30.3671C35.6817 30.4055 35.5083 30.4392 35.2929 30.465C34.8637 30.5166 34.3225 30.5309 33.7708 30.5158C33.2208 30.5008 32.6761 30.4569 32.2437 30.397C32.0269 30.367 31.846 30.334 31.7102 30.3007C31.6971 30.2975 31.6849 30.2944 31.6735 30.2914ZM35.9144 30.3665C35.9144 30.3665 35.9147 30.3657 35.9155 30.3642C35.9148 30.3658 35.9144 30.3665 35.9144 30.3665Z" fill="#E5E7E6" stroke="#E5E7E6"/>
</svg>
